<svg xmlns="http://www.w3.org/2000/svg" width="2400" height="1851" viewBox="0 0 2400 1851" version="1.1">
	<path d="M 1409.500 73.597 C 1406.200 73.787, 1394.275 74.424, 1383 75.013 C 1291.588 79.789, 1203.623 94.219, 1124 117.500 C 1017.821 148.546, 877.357 213.507, 765.500 283.297 C 571.199 404.526, 400.462 568.912, 282.671 748.166 C 263.394 777.502, 240.548 816.169, 237.040 825.394 C 236.168 827.689, 236.900 828.130, 259.319 838.801 C 358.962 886.228, 645.834 1011.990, 742.292 1050.532 C 746.028 1052.025, 748.930 1053.710, 748.741 1054.276 C 748.553 1054.842, 740.321 1060.362, 730.449 1066.543 C 655.504 1113.462, 582.675 1145.428, 512 1162.424 C 480.848 1169.915, 451.153 1174.225, 418.300 1176.024 C 364.035 1178.995, 304.260 1169.632, 266.795 1152.293 C 257.550 1148.014, 256.480 1151.539, 275.942 1122.149 C 307.371 1074.687, 331.531 1042.474, 349.346 1024.281 L 357.394 1016.062 353.447 1014.421 C 351.276 1013.518, 335.249 1006.754, 317.831 999.390 C 300.413 992.025, 285.959 986, 285.710 986 C 285.462 986, 284.943 989.262, 284.557 993.250 C 282.876 1010.640, 273.817 1048.634, 262.085 1087.500 C 255.607 1108.964, 245.678 1138.655, 244.628 1139.705 C 243.851 1140.482, 226.240 1133.100, 212.500 1126.238 C 167.951 1103.988, 125.616 1075.605, 113.749 1060.031 C 111.323 1056.846, 111.042 1056.723, 110.332 1058.531 C 109.906 1059.614, 104.087 1076.248, 97.402 1095.496 L 85.247 1130.492 91.873 1131.619 C 100.865 1133.148, 121.888 1138.806, 148.971 1146.985 C 198.092 1161.821, 225.535 1170.326, 226.234 1170.932 C 226.638 1171.282, 224.865 1174.703, 222.293 1178.534 C 206.382 1202.241, 150 1294.381, 150 1296.676 C 150 1297.523, 197.811 1319, 199.696 1319 C 200.571 1319, 201.149 1317.366, 223.593 1251.500 C 238.407 1208.027, 248.492 1180.108, 249.885 1178.715 C 250.398 1178.202, 252.567 1178.964, 255.045 1180.529 C 264.231 1186.328, 284.387 1194.042, 301.922 1198.472 C 327.382 1204.903, 353.633 1207.969, 389.500 1208.700 C 436.484 1209.659, 480.590 1205.691, 537 1195.432 C 561.129 1191.043, 600.840 1182.279, 614.500 1178.328 C 615.600 1178.009, 612.017 1181.009, 606.538 1184.994 C 545.110 1229.667, 485.493 1290.329, 448.305 1346 C 436.038 1364.363, 427.280 1381.613, 429.231 1383.564 C 429.597 1383.930, 436.107 1382.195, 443.698 1379.708 C 503.742 1360.041, 568.390 1351.959, 648.126 1354.151 C 804.670 1358.455, 1000.964 1411.082, 1216.660 1506.577 C 1319.687 1552.190, 1426.663 1607.723, 1513.500 1660.671 C 1555.880 1686.511, 1592.982 1711.916, 1601.437 1720.885 C 1603.052 1722.598, 1604.670 1724, 1605.033 1724 C 1606.739 1724, 1603.001 1702.244, 1566.368 1499 C 1558.149 1453.405, 1553.309 1425.478, 1553.570 1425.159 C 1553.724 1424.971, 1560.746 1426.412, 1569.175 1428.361 C 1602.686 1436.111, 1622.092 1438.517, 1650.500 1438.443 C 1675.558 1438.378, 1686.042 1436.978, 1702.671 1431.474 C 1719.711 1425.835, 1731.699 1418.618, 1742.299 1407.616 C 1762.224 1386.936, 1778.023 1343.522, 1777.994 1309.526 C 1777.986 1299.332, 1775.470 1284.206, 1772.119 1274.205 C 1770.515 1269.417, 1769.372 1265.222, 1769.579 1264.882 C 1769.786 1264.542, 1772.161 1263.971, 1774.856 1263.613 C 1781.785 1262.694, 1793.103 1258.668, 1800.871 1254.360 C 1808.753 1249.988, 1820.070 1238.815, 1824.923 1230.615 C 1838.561 1207.571, 1840.883 1170.302, 1831.035 1132.500 C 1829.459 1126.450, 1827.880 1120.768, 1827.525 1119.873 C 1826.683 1117.748, 1827.333 1117.667, 1870.500 1114.491 C 1889.750 1113.075, 1906.406 1111.728, 1907.513 1111.499 C 1909.202 1111.148, 1910.164 1108.591, 1913.488 1095.610 C 1918.034 1077.859, 1918.528 1082.339, 1908.957 1054.533 C 1888.445 994.947, 1881.672 934.580, 1891.631 900.124 C 1894.935 888.691, 1899.602 880.594, 1907.658 872.317 C 1920.303 859.324, 1920.250 857.451, 1906.046 815 C 1902.274 803.725, 1892.686 775.600, 1884.740 752.500 C 1862.983 689.246, 1840.378 617.015, 1841.649 614.807 C 1841.868 614.426, 1865.999 606.208, 1895.274 596.546 C 1980.634 568.372, 2023.621 552.347, 2078 528.428 C 2099.696 518.884, 2141.487 497.896, 2160.500 486.995 C 2215.891 455.237, 2256.488 420.449, 2276.273 387.789 L 2280.046 381.561 2277.773 380.676 C 2276.468 380.168, 2242.375 380.086, 2197.750 380.484 C 2151.237 380.899, 2120 380.813, 2120 380.268 C 2120 378.696, 2133.250 356.145, 2152.614 324.762 C 2206.363 237.652, 2214.835 223.502, 2213.843 222.510 C 2212.644 221.311, 2180.995 208.696, 2160 201.049 C 2057.447 163.696, 1926.060 128.392, 1808.470 106.590 C 1720.246 90.233, 1644.505 80.943, 1550.500 74.947 C 1534.464 73.924, 1422.429 72.851, 1409.500 73.597 M 1401 133.590 C 1317.342 137.382, 1266.982 142.885, 1204 155.116 C 1104.142 174.507, 1020.934 204.295, 908 261.081 C 728.418 351.378, 587.257 462.543, 451.594 620.500 C 413.674 664.652, 378.717 708.706, 323.047 782.500 C 315.163 792.950, 308.329 801.995, 307.858 802.600 C 307.282 803.342, 310.668 805.253, 318.252 808.468 C 362.119 827.063, 510.934 894.665, 599.850 936.389 C 609.942 941.125, 618.464 945, 618.787 945 C 620.101 945, 613.011 938.402, 605.503 932.639 C 596.958 926.079, 564.025 904.125, 501.039 863 C 468.113 841.502, 435.027 819.060, 423.453 810.374 L 420.621 808.248 425.031 800.874 C 518.956 643.836, 649.135 493.611, 779 392.399 C 859.194 329.899, 937.171 286.362, 1033.500 250.303 C 1196.556 189.266, 1378.585 165.051, 1580.699 177.511 C 1659.708 182.381, 1726.088 190.072, 1852.500 209 C 1973.450 227.111, 2006.908 230.660, 2048 229.739 C 2071.652 229.208, 2080.585 227.916, 2069.435 226.639 C 2059.270 225.474, 2016.378 216.515, 1970.500 205.974 C 1772.986 160.593, 1661.133 142.807, 1524 134.975 C 1505.832 133.938, 1415.719 132.923, 1401 133.590 M 1505.564 508.563 C 1461.984 514.389, 1423.714 531.050, 1398.464 555.189 C 1390.806 562.510, 1388.267 565.705, 1385.243 571.825 L 1381.500 579.401 1381.606 591.950 C 1381.728 606.439, 1382.910 611.268, 1394.896 646.216 C 1398.803 657.610, 1402 668.021, 1402 669.352 C 1402 672.952, 1394.615 683.339, 1388.695 688.065 C 1381.999 693.410, 1370.727 699.060, 1360.017 702.438 C 1355.352 703.910, 1338.116 707.781, 1321.716 711.040 C 1279.755 719.379, 1267.675 723.780, 1255.477 735.177 C 1244.889 745.070, 1240.303 757.674, 1241.353 774 C 1243.130 801.642, 1255.566 844.566, 1295.823 962.004 C 1310.659 1005.283, 1318.560 1030, 1317.558 1030 C 1317.392 1030, 1312.811 1027.475, 1307.378 1024.389 C 1301.945 1021.304, 1276.125 1007.843, 1250 994.477 C 1208.481 973.235, 1189.336 963.109, 1183.876 959.500 C 1179.908 956.878, 1174.617 947.087, 1151.183 899 C 1129.289 854.073, 1120.216 839.247, 1106.646 826.216 C 1099.032 818.905, 1093.414 816.052, 1086.566 816.022 C 1075.192 815.971, 1066.450 824.256, 1056.516 844.500 C 1044.318 869.354, 1040.476 885.602, 1041.263 909 C 1042.414 943.233, 1055.507 977.922, 1082.593 1018.500 C 1104.875 1051.880, 1144.404 1093.807, 1166.292 1107.275 C 1168.936 1108.902, 1170.965 1110.346, 1170.800 1110.483 C 1170.635 1110.621, 1163.300 1113.763, 1154.500 1117.465 C 1118.518 1132.604, 1083.813 1150.787, 1057 1168.549 C 1013.762 1197.191, 992.022 1223.105, 990.269 1248.089 L 989.736 1255.678 1002.118 1256.323 C 1067.011 1259.706, 1157.361 1303.356, 1235 1368.832 C 1251.782 1382.985, 1289.091 1420.438, 1302.380 1436.471 C 1323.818 1462.335, 1343.905 1490.908, 1357 1514.165 L 1363.500 1525.709 1388.239 1538.465 C 1440.474 1565.401, 1475.751 1585.676, 1520.357 1614.400 C 1532.929 1622.495, 1543.312 1628.979, 1543.432 1628.809 C 1543.551 1628.639, 1537.682 1599.475, 1530.389 1564 C 1504.548 1438.301, 1491.900 1366.916, 1494.341 1360.553 C 1494.915 1359.057, 1495.442 1359.156, 1499.242 1361.471 C 1532.207 1381.548, 1570.895 1395.399, 1607 1400.049 C 1620.798 1401.826, 1645.495 1401.566, 1657.362 1399.519 C 1675.672 1396.361, 1687.109 1391.516, 1699.618 1381.620 C 1708.896 1374.280, 1714.457 1367.886, 1720.926 1357.123 C 1737.716 1329.187, 1738.437 1284.901, 1722.752 1244.831 C 1719.729 1237.106, 1719.673 1236.712, 1721.434 1235.425 C 1722.444 1234.686, 1727.598 1233.136, 1732.886 1231.980 C 1761.319 1225.764, 1767.419 1223.668, 1771.630 1218.663 L 1774.214 1215.592 1771.999 1213.798 C 1768.687 1211.116, 1746.973 1204.488, 1728.444 1200.503 C 1673.861 1188.764, 1629.946 1188.452, 1606.310 1199.633 C 1599.181 1203.006, 1591.321 1210.159, 1588.875 1215.500 L 1587.044 1219.500 1587.039 1214.500 C 1587.018 1191.242, 1601.366 1170.989, 1624.986 1160.938 C 1643.142 1153.212, 1664.037 1150.488, 1698.812 1151.313 C 1724.788 1151.930, 1735.691 1152.988, 1768.796 1158.105 C 1779.959 1159.830, 1789.251 1161.075, 1789.445 1160.871 C 1790.171 1160.109, 1788.107 1150.305, 1786.094 1144.952 C 1784.947 1141.901, 1777.481 1127.960, 1769.504 1113.972 C 1761.527 1099.985, 1755 1088.225, 1755 1087.841 C 1755 1087.456, 1757.362 1086.464, 1760.250 1085.636 C 1786.857 1078.005, 1819.604 1072.611, 1855.750 1069.906 C 1864.688 1069.237, 1872 1068.297, 1872 1067.816 C 1872 1067.336, 1870.586 1064.143, 1868.858 1060.721 C 1861.514 1046.178, 1852.723 1014.366, 1848.958 988.711 C 1844.146 955.925, 1843.975 908.939, 1848.588 886.749 C 1849.104 884.263, 1848.742 883.818, 1844.830 882.143 C 1839.345 879.794, 1819.249 874.596, 1807.500 872.488 C 1802.550 871.600, 1791.750 870.631, 1783.500 870.336 C 1767.176 869.750, 1758.744 870.904, 1749.140 875.035 C 1738.465 879.628, 1732.159 890.791, 1733.277 903.121 C 1733.785 908.724, 1733.726 908.900, 1731.150 909.427 C 1727.327 910.208, 1667.832 916.173, 1667.513 915.807 C 1667.366 915.638, 1666.233 913.475, 1664.996 911 C 1663.758 908.525, 1657.452 897.725, 1650.981 887 C 1644.511 876.275, 1637.980 864.975, 1636.468 861.889 L 1633.720 856.278 1618.610 855.692 C 1575.625 854.024, 1540.549 837.481, 1537.279 817.335 L 1536.701 813.771 1542.101 814.522 C 1545.070 814.935, 1556.500 815.242, 1567.500 815.204 C 1596.749 815.104, 1623.449 811.594, 1642.500 805.345 C 1655.227 801.171, 1667.079 794.641, 1663.867 793.573 C 1663.115 793.322, 1649.900 790.600, 1634.500 787.522 C 1553.691 771.372, 1507.926 755.306, 1502.003 741.008 C 1501.303 739.318, 1500.925 737.742, 1501.162 737.505 C 1501.399 737.268, 1507.197 736.328, 1514.046 735.417 C 1527.834 733.582, 1550.195 733.240, 1608 733.981 C 1638.467 734.371, 1645.343 734.180, 1656.500 732.632 C 1671.530 730.546, 1685.398 727.821, 1695.813 724.907 C 1700.545 723.582, 1703.545 723.193, 1704.313 723.803 C 1752.573 762.166, 1801.031 797.885, 1826.379 813.778 C 1843.411 824.458, 1861 832.218, 1861 829.053 C 1861 828.559, 1858.523 822.476, 1855.495 815.534 C 1841.825 784.191, 1831.272 755.992, 1807.015 686 C 1789.328 634.963, 1780.979 611.794, 1778.658 607.306 C 1769.378 589.359, 1692.245 545.736, 1624.272 519.992 C 1612.954 515.706, 1601.078 512.885, 1581.500 509.832 C 1564.076 507.116, 1521.691 506.408, 1505.564 508.563 M 769.026 531.192 C 744.015 532.250, 723.394 533.273, 723.200 533.467 C 723.007 533.660, 723.388 561.328, 724.048 594.952 C 724.708 628.576, 724.978 656.355, 724.649 656.685 C 723.403 657.931, 702.793 650.491, 684.719 642.270 C 674.390 637.572, 665.744 633.923, 665.507 634.160 C 664.224 635.442, 626.169 738.557, 626.776 739.103 C 628.186 740.369, 669.714 750.039, 684 752.427 C 704.994 755.937, 724.256 757.379, 740 756.621 C 747.425 756.263, 754.421 755.723, 755.547 755.421 C 757.312 754.949, 757.844 755.676, 759.401 760.686 C 762.244 769.836, 768.859 782.639, 775.017 790.911 C 792.654 814.605, 820.230 830.860, 856 838.649 C 868.123 841.289, 908.570 841.299, 924.500 838.666 C 941.011 835.937, 957.134 832.340, 970.275 828.454 C 983.782 824.459, 1020 810.893, 1020 809.829 C 1020 809.438, 1007.850 790.606, 993 767.982 C 978.150 745.357, 966 726.648, 966 726.407 C 966 726.166, 976.988 705.837, 990.417 681.233 C 1003.847 656.628, 1014.984 635.853, 1015.167 635.067 C 1015.427 633.952, 1010.983 632.797, 995 629.828 C 907.562 613.583, 874.563 611.778, 842.133 621.463 C 837.935 622.717, 833.655 624.096, 832.621 624.528 C 830.793 625.292, 830.761 624.069, 831.440 578.906 C 831.823 553.383, 832.361 531.712, 832.636 530.750 C 833.263 528.552, 831.120 528.567, 769.026 531.192 M 881 714.691 C 873.502 715.946, 863.989 720.279, 861.765 723.452 C 861.361 724.028, 861.024 726.366, 861.015 728.646 C 860.983 737.321, 871.869 742.493, 890 742.418 C 900.749 742.373, 910.438 740.830, 915.153 738.410 C 917.299 737.309, 917.937 736.093, 918.494 732.044 C 919.311 726.105, 918.367 719.510, 916.423 717.566 C 914.162 715.305, 905.646 713.991, 894.201 714.136 C 888.315 714.211, 882.375 714.461, 881 714.691" stroke="none" fill="#000000" fill-rule="evenodd"/>
</svg>