<svg width="344" height="312" viewBox="0 0 344 312" fill="none" xmlns="http://www.w3.org/2000/svg">
<path fill-rule="evenodd" clip-rule="evenodd" d="M147.923 0.149919C140.207 0.633897 124.462 2.96587 110.41 5.7067C97.6832 8.1889 92.0067 9.84143 100.393 8.62338C106.685 7.7092 144.694 7.94051 155.339 8.95798C196.33 12.875 237.927 28.9419 256.384 47.9861L259.55 51.2536L252.683 63.6261C244.517 78.3375 237.273 90.0793 236.362 90.0811C236.001 90.0819 234.246 89.16 232.461 88.0325C230.677 86.9049 225.769 84.2477 221.553 82.1283C187.859 65.1865 155.469 57.6468 116.378 57.6468C92.8763 57.6468 75.9184 59.7671 51.1551 65.8011C37.1053 69.2248 23.8826 73.2716 28.9879 72.5861C60.9291 68.2944 91.4227 66.8561 112.115 68.6648C154.21 72.3429 188.355 82.6071 213.999 99.2903C225.911 107.041 226.096 105.341 211.813 119.405C205.043 126.07 195.739 134.373 191.135 137.857C183.386 143.721 182.596 144.119 180.478 143.244C179.22 142.724 174.028 140.539 168.94 138.388C123.425 119.147 76.6329 116.68 22.1672 130.649C14.1955 132.694 5.94678 134.933 3.83663 135.624L0 136.883L7.24697 136.546C11.2328 136.36 19.9121 136.006 26.5341 135.758L38.5752 135.309L39.0279 154.734C39.5207 175.842 40.3793 182.217 45.2458 200.914C51.566 225.193 62.6181 248.143 78.0763 269.086C81.4687 273.682 90.1719 283.397 97.4163 290.673C111.358 304.677 112.394 305.348 104.07 294.981C88.7268 275.872 74.3556 248.134 67.0609 223.551C60.5787 201.706 58.1548 182.557 58.5444 156.284C58.7005 145.771 59.0858 136.912 59.4004 136.598C60.606 135.393 99.026 139.219 107.117 141.349L110.22 142.165L110.638 163.284C111.155 189.33 113.308 202.13 120.936 224.521C130.705 253.197 144.557 275.338 166.991 298.142C180.272 311.641 185.163 315.744 179.203 308.385C174.527 302.612 163.046 285.038 157.873 275.736C145.396 253.299 136.591 227.55 131.604 198.914C129.58 187.288 128.254 149.551 129.816 147.988C131.047 146.756 149.816 153.217 160.712 158.622C170.876 163.664 169.917 162.115 172.584 177.796C175.847 196.993 185.117 220.979 196.691 240.172C208.608 259.933 232.004 286.006 249.381 298.891C260.496 307.132 260.754 307.206 254.822 300.453C248.647 293.422 240.003 282.243 240.003 281.286C240.003 280.915 241.747 279.697 243.878 278.579C246.011 277.462 252.623 273.099 258.574 268.886C276.812 255.973 295.514 236.425 309.185 215.985C315.934 205.895 327.349 182.837 332.419 169.053C335.737 160.033 344.011 129.531 344 126.36C343.998 125.89 342.1 130.215 339.781 135.971C318.408 189.031 288.591 228.453 252.365 251.543C245.398 255.984 232.71 262.912 230.076 263.714C228.493 264.195 227.726 263.362 224.337 257.48C216.424 243.745 208.262 227.364 208.99 226.679C209.4 226.293 213.381 223.976 217.835 221.529C271.352 192.141 310.05 135.041 319.359 71.7309C321.819 54.9973 321.517 52.9172 318.12 63.1951C309.625 88.8912 293.461 121.316 278.677 142.319C263.109 164.435 244.715 182.899 226.665 194.528C219.002 199.465 204.375 207.023 202.483 207.023C200.016 207.023 193.781 183.708 192.387 169.272L191.734 162.503L200.734 155.134C231.906 129.614 252.82 98.7884 265.913 59.0655C269.002 49.6915 274.426 26.6227 275.376 18.8091C275.858 14.8519 275.64 15.178 272.377 23.2904C270.442 28.102 268.516 32.0395 268.098 32.0395C267.68 32.0395 264.621 30.2795 261.3 28.1293C242.62 16.0307 212.788 5.33881 187.995 1.85622C178.873 0.575001 156.403 -0.381859 147.923 0.149919Z" fill="black"/>
</svg>
