<svg width="404" height="366" viewBox="0 0 404 366" fill="none" xmlns="http://www.w3.org/2000/svg">
<path fill-rule="evenodd" clip-rule="evenodd" d="M173.5 0.175636C164.449 0.742636 145.982 3.47464 129.5 6.68564C114.573 9.59364 107.915 11.5296 117.751 10.1026C125.131 9.03164 169.712 9.30264 182.198 10.4946C230.276 15.0836 279.065 33.9066 300.714 56.2176L304.427 60.0456L296.373 74.5406C286.795 91.7756 278.299 105.532 277.23 105.534C276.807 105.535 274.748 104.455 272.655 103.134C270.562 101.813 264.805 98.6996 259.861 96.2166C220.34 76.3686 182.35 67.5356 136.5 67.5356C108.935 67.5356 89.045 70.0196 60 77.0886C43.521 81.0996 28.012 85.8406 34 85.0376C71.464 80.0096 107.23 78.3246 131.5 80.4436C180.873 84.7526 220.922 96.7776 251 116.323C264.972 125.403 265.189 123.412 248.436 139.888C240.496 147.696 229.583 157.424 224.183 161.505C215.094 168.375 214.168 168.842 211.683 167.816C210.208 167.207 204.118 164.647 198.15 162.127C144.766 139.586 89.883 136.696 26 153.061C16.65 155.457 6.975 158.08 4.5 158.89L0 160.364L8.5 159.969C13.175 159.752 23.355 159.337 31.122 159.047L45.245 158.52L45.776 181.278C46.354 206.006 47.361 213.475 53.069 235.379C60.482 263.823 73.445 290.71 91.576 315.245C95.555 320.63 105.763 332.011 114.26 340.536C130.612 356.942 131.827 357.728 122.064 345.583C104.068 323.196 87.212 290.699 78.656 261.899C71.053 236.307 68.21 213.873 68.667 183.093C68.85 170.777 69.302 160.398 69.671 160.03C71.085 158.619 116.148 163.101 125.638 165.596L129.277 166.553L129.768 191.294C130.374 221.808 132.899 236.804 141.846 263.036C153.305 296.631 169.551 322.57 195.865 349.286C211.442 365.101 217.178 369.907 210.188 361.286C204.703 354.523 191.237 333.934 185.17 323.036C170.535 296.751 160.208 266.585 154.359 233.036C151.985 219.416 150.43 175.206 152.262 173.374C153.705 171.931 175.72 179.5 188.5 185.833C200.421 191.74 199.296 189.925 202.424 208.296C206.252 230.786 217.125 258.886 230.7 281.372C244.677 304.523 272.118 335.068 292.5 350.163C305.537 359.818 305.84 359.905 298.882 351.993C291.639 343.756 281.5 330.659 281.5 329.539C281.5 329.104 283.546 327.677 286.046 326.367C288.547 325.058 296.303 319.947 303.283 315.011C324.674 299.883 346.609 276.982 362.644 253.036C370.56 241.215 383.949 214.201 389.896 198.053C393.787 187.486 403.492 151.751 403.479 148.036C403.477 147.486 401.25 152.553 398.531 159.296C373.462 221.458 338.489 267.642 296 294.693C287.828 299.896 272.946 308.013 269.857 308.952C268 309.516 267.101 308.54 263.126 301.649C253.844 285.557 244.271 266.367 245.125 265.564C245.606 265.112 250.275 262.397 255.5 259.531C318.27 225.101 363.659 158.206 374.577 84.0356C377.463 64.4316 377.109 61.9946 373.124 74.0356C363.16 104.14 344.202 142.127 326.861 166.733C308.602 192.643 287.027 214.274 265.856 227.898C256.868 233.682 239.712 242.536 237.493 242.536C234.599 242.536 227.286 215.222 225.651 198.309L224.885 190.379L235.442 181.746C272.004 151.849 296.534 115.735 311.89 69.1976C315.513 58.2156 321.875 31.1896 322.99 22.0356C323.555 17.3996 323.299 17.7816 319.472 27.2856C317.202 32.9226 314.943 37.5356 314.453 37.5356C313.963 37.5356 310.375 35.4736 306.48 32.9546C284.57 18.7806 249.58 6.25464 220.5 2.17464C209.801 0.673637 183.446 -0.447364 173.5 0.175636Z" fill="black"/>
</svg>
